# xmcd CD database file
#
# Track frame offsets:
#	183
#	19015
#	34565
#	50290
#	65245
#	78518
#	93948
#	109785
#	124508
#	141318
#	173258
#	189005
#	199388
#	213820
#	230933
#	242900
#	272715
#	284913
#
# Disc length: 4021 seconds
#
# Revision: 3
# Processed by: cddbd v1.5.1PL0 Copyright (c) Steve Scherf et al.
# Submitted via: CDex 1.51
#
DISCID=030fb312
DTITLE=Various Artist - Still Got The Blues 2
DYEAR=1900
DGENRE=Blues
TTITLE0=Roy Gaines - The First Rule Of Cheating
TTITLE1=Sunnyland Slim - I Had It So Hard
TTITLE2=King Biscuit Boy With The Ronnie Hawkins Band - It's My Soul
TTITLE3=Tommy Tucker - Drunk
TTITLE4=Mississippi Fred McDowell - I Asked for Whiskey, She Brought Me Gasoline
TTITLE5=Bo Diddley - Road Runner
TTITLE6=Buddy Reed - Blues For Mud
TTITLE7=Big Walter 'Shaky' Horton - Easy
TTITLE8=Peter Green And Mick Green - Chinese White Boy
TTITLE9=Clayton Love With Sid Wallace - Blues Come Home (History Of The Delta Blues)
TTITLE10=Isaac Scott - Don't Let My Baby Ride
TTITLE11=Big Joe Williams - Highway 49
TTITLE12=Roy Gaines - Okie Dokie Stomp
TTITLE13=Memphis Slim - Wish Me Well
TTITLE14=The Paul deLay Band - Don't Drink
TTITLE15=Luther Allison - You Upset Me Baby
TTITLE16=King Curtis - Soul Groove (Part 1)
TTITLE17=Charlie Musselwhite - Troubled No More
EXTD=
EXTT0=
EXTT1=
EXTT2=
EXTT3=
EXTT4=
EXTT5=
EXTT6=
EXTT7=
EXTT8=
EXTT9=
EXTT10=
EXTT11=
EXTT12=
EXTT13=
EXTT14=
EXTT15=
EXTT16=
EXTT17=
PLAYORDER=
